<svg width="20" height="18" viewBox="0 0 20 18" fill="none" xmlns="http://www.w3.org/2000/svg">
<path fill-rule="evenodd" clip-rule="evenodd" d="M1 0C0.447715 0 0 0.447715 0 1C0 1.55228 0.447715 2 1 2H1.00132H1.00337H1.01331H1.05176H1.19531H1.6875H2.14208L4.01163 15.1521C4.08668 15.6399 4.50643 16 5 16C5 17.1046 5.89543 18 7 18C8.10457 18 9 17.1046 9 16H12C12 17.1046 12.8954 18 14 18C15.1046 18 16 17.1046 16 16H16.5C17.0523 16 17.5 15.5523 17.5 15C17.5 14.4477 17.0523 14 16.5 14H14H7H5.85792L5.70407 12H16C16.4168 12 16.79 11.7414 16.9363 11.3511L19.9363 3.35112C20.0515 3.04403 20.0087 2.69998 19.8219 2.43041C19.6351 2.16083 19.328 2 19 2H4.16561L3.98837 0.847943C3.91332 0.360111 3.49357 0 3 0H1.6875H1.19531H1.05176H1.01331H1.00337H1.0019H1ZM4.4733 4L5.39638 10H15.307L17.557 4H4.4733Z" fill="#4F738E"/>
</svg>
