<svg width="40" height="40" viewBox="0 0 40 40" fill="none" xmlns="http://www.w3.org/2000/svg">
<path d="M33.75 0H6.25C2.79822 0 0 2.79822 0 6.25V33.75C0 37.2018 2.79822 40 6.25 40H33.75C37.2018 40 40 37.2018 40 33.75V6.25C40 2.79822 37.2018 0 33.75 0Z" fill="#F00073"/>
<path d="M20 10.1687C23.1807 10.1687 23.6145 10.1687 24.9157 10.1687C26.0723 10.1687 26.6506 10.4578 27.0843 10.6024C27.6627 10.8916 28.0964 11.0361 28.5301 11.4699C28.9639 11.9036 29.253 12.3374 29.3976 12.9157C29.5422 13.3494 29.6867 13.9277 29.8313 15.0843C29.8313 16.3855 29.8313 16.6747 29.8313 20C29.8313 23.3253 29.8313 23.6145 29.8313 24.9157C29.8313 26.0723 29.5422 26.6506 29.3976 27.0843C29.1084 27.6627 28.9639 28.0964 28.5301 28.5301C28.0964 28.9639 27.6627 29.253 27.0843 29.3976C26.6506 29.5422 26.0723 29.6867 24.9157 29.8313C23.6145 29.8313 23.3253 29.8313 20 29.8313C16.6747 29.8313 16.3855 29.8313 15.0843 29.8313C13.9277 29.8313 13.3494 29.5422 12.9157 29.3976C12.3374 29.1084 11.9036 28.9639 11.4699 28.5301C11.0361 28.0964 10.747 27.6627 10.6024 27.0843C10.4578 26.6506 10.3133 26.0723 10.1687 24.9157C10.1687 23.6145 10.1687 23.3253 10.1687 20C10.1687 16.6747 10.1687 16.3855 10.1687 15.0843C10.1687 13.9277 10.4578 13.3494 10.6024 12.9157C10.8916 12.3374 11.0361 11.9036 11.4699 11.4699C11.9036 11.0361 12.3374 10.747 12.9157 10.6024C13.3494 10.4578 13.9277 10.3133 15.0843 10.1687C16.3855 10.1687 16.8193 10.1687 20 10.1687ZM20 8C16.6747 8 16.3855 8 15.0843 8C13.7831 8 12.9157 8.28916 12.1928 8.57831C11.4699 8.86747 10.747 9.30121 10.0241 10.0241C9.30121 10.747 9.01205 11.3253 8.57831 12.1928C8.28916 12.9157 8.14458 13.7831 8 15.0843C8 16.3855 8 16.8193 8 20C8 23.3253 8 23.6145 8 24.9157C8 26.2169 8.28916 27.0843 8.57831 27.8072C8.86747 28.5301 9.30121 29.253 10.0241 29.9759C10.747 30.6988 11.3253 30.988 12.1928 31.4217C12.9157 31.7108 13.7831 31.8554 15.0843 32C16.3855 32 16.8193 32 20 32C23.1807 32 23.6145 32 24.9157 32C26.2169 32 27.0843 31.7108 27.8072 31.4217C28.5301 31.1325 29.253 30.6988 29.9759 29.9759C30.6988 29.253 30.988 28.6747 31.4217 27.8072C31.7108 27.0843 31.8554 26.2169 32 24.9157C32 23.6145 32 23.1807 32 20C32 16.8193 32 16.3855 32 15.0843C32 13.7831 31.7108 12.9157 31.4217 12.1928C31.1325 11.4699 30.6988 10.747 29.9759 10.0241C29.253 9.30121 28.6747 9.01205 27.8072 8.57831C27.0843 8.28916 26.2169 8.14458 24.9157 8C23.6145 8 23.3253 8 20 8Z" fill="white"/>
<path d="M20 13.7831C16.5301 13.7831 13.7831 16.5301 13.7831 20C13.7831 23.4699 16.5301 26.2169 20 26.2169C23.4699 26.2169 26.2169 23.4699 26.2169 20C26.2169 16.5301 23.4699 13.7831 20 13.7831ZM20 24.0482C17.8313 24.0482 15.9518 22.3133 15.9518 20C15.9518 17.8313 17.6867 15.9518 20 15.9518C22.1687 15.9518 24.0482 17.6867 24.0482 20C24.0482 22.1687 22.1687 24.0482 20 24.0482Z" fill="white"/>
<path d="M26.3614 15.0843C27.1599 15.0843 27.8072 14.437 27.8072 13.6386C27.8072 12.8401 27.1599 12.1928 26.3614 12.1928C25.563 12.1928 24.9157 12.8401 24.9157 13.6386C24.9157 14.437 25.563 15.0843 26.3614 15.0843Z" fill="white"/>
</svg>
