<svg width="46" height="64" viewBox="0 0 46 64" fill="none" xmlns="http://www.w3.org/2000/svg">
<path fill-rule="evenodd" clip-rule="evenodd" d="M26.6104 51.9603C25.3447 51.9603 25.8979 50.9948 26.1333 49.8748L27.1979 44.044C27.3854 43.0259 27.6739 42.0762 27.75 41.1506H36.1864C36.3979 43.712 38.0114 49.6301 38.0114 51.7302C36.0604 51.7302 36.3874 51.4865 35.0468 50.5798C33.6572 50.9065 32.8197 52.702 30.6458 51.5716C29.7781 51.1198 29.8427 50.1848 28.6739 50.7889C27.9593 51.1608 27.6833 51.9603 26.6104 51.9603ZM10.1916 47.8209H9.28018C9.28018 46.3805 11.0739 38.626 11.1041 37.2413H19.5406C19.9614 39.0609 20.2208 40.8869 20.5854 42.8578C21.1666 46.0107 22.1447 48.051 20.6812 48.051C19.2604 48.051 19.2031 46.9006 17.9448 46.9006C17.1166 46.9006 17.1166 48.051 15.4364 48.051C13.0885 48.051 14.0802 46.9006 12.2448 46.9006C11.4093 46.9006 11.5625 47.8209 10.1916 47.8209ZM42.5718 47.5898L43.5395 42.3577C43.8103 41.0151 44.3958 38.5766 44.3958 37.0112H53.0603C53.0603 39.1113 54.6739 45.0294 54.8843 47.5898C52.0083 47.5898 53.3041 46.8722 51.4645 46.4404C48.5801 48.3893 48.977 48.3021 46.2197 46.4404C44.5447 46.8344 44.8385 48.1235 42.5718 47.5898ZM21.5937 13.7832C21.5937 15.8172 25.8916 16.083 27.75 16.083C27.75 19.113 29.3802 18.843 31.1697 18.843V36.551C31.1697 37.6184 30.0302 36.8799 30.0302 39.0809C26.3468 39.0809 26.5572 38.73 25.8531 39.9277C25.8312 39.9655 25.7916 40.0474 25.775 40.079C25.7572 40.1105 25.7302 40.184 25.6979 40.2313C25.6979 34.9835 25.2218 27.1218 19.0854 27.1218C16.0489 27.1218 14.5239 29.9206 14.5239 33.1019C13.6531 33.5673 13.2625 33.8856 13.1562 35.1716C8.2833 35.1716 9.82184 33.8572 7.70518 44.6218C7.46039 45.871 6.99997 47.6244 6.99997 48.9703C10.0125 51.0043 11.8323 49.1415 12.7041 49.4262C16.0718 50.522 14.9948 50.294 17.8885 49.4136C18.6812 49.172 18.9312 50.1207 20.6812 50.1207C21.6083 50.1207 23.6458 49.5029 23.6458 48.7402C23.6458 46.9384 22.2093 40.5696 21.8218 38.1616C21.2562 34.6473 21.5583 35.1716 17.2604 35.1716C17.2604 32.7951 16.577 34.6841 16.577 32.6417C16.577 28.5096 22.5968 26.2393 23.3979 36.3409C23.5312 38.0229 23.6729 39.8867 23.8354 41.4195L24.5572 46.2103C24.5572 48.6278 23.6458 50.4632 23.6458 52.8806C25.5031 54.1351 26.6125 54.3389 28.5927 53.4732C30.3541 52.7031 30.2093 54.7738 33.7677 53.6497C36.6551 52.7378 34.4822 53.7999 37.327 53.7999C42.5072 53.7999 39.3791 50.6103 39.3791 46.9006L40.2301 42.0089C40.6291 38.7321 40.3104 28.9625 44.3958 28.9625C46.5447 28.9625 47.5885 30.2127 47.5885 32.6417C47.5885 33.3004 46.8051 33.3656 46.676 34.9415C45.1031 34.9415 44.0833 34.87 42.7999 35.1716C42.3208 37.2455 42.0426 39.3708 41.6031 41.554C41.2739 43.1898 40.5197 46.7861 40.5197 48.28C40.5197 49.3874 42.9166 49.9967 44.0385 49.7761C44.8947 49.6069 45.3958 49.1531 45.8416 49.09C46.6697 48.9755 46.6926 49.6605 47.8156 49.6605H49.8687C50.9958 49.6605 50.9916 48.9839 51.8406 49.0921C51.8416 49.0921 55.8905 50.688 56.9364 48.5101C57.2916 47.7736 56.0499 42.3651 55.8937 41.5141C54.4801 33.8541 55.5343 34.9415 50.7801 34.9415C50.7801 32.7856 50.2343 33.6156 49.7791 32.732C49.5989 32.3822 49.3624 30.6613 49.0958 29.971C47.3249 25.404 42.2979 26.6406 40.8322 28.5874C39.1249 30.8546 38.4208 36.1077 38.4687 38.8539C38.4916 40.0727 38.7051 40.4078 38.0114 40.9215C38.0114 38.6995 37.9635 39.0809 34.1343 39.0809C34.0937 37.2266 33.2218 37.693 33.2218 36.7811V18.843C34.9645 18.843 35.7531 18.5793 35.9583 16.083C43.5312 16.083 42.5718 14.3106 42.5718 10.104H21.5937V13.7832Z" fill="#EC691F"/>
<path fill-rule="evenodd" clip-rule="evenodd" d="M21.3458 13.7664C21.3458 15.8487 25.7447 16.1209 27.6468 16.1209C27.6468 19.2223 29.3156 18.9459 31.1479 18.9459C31.9093 18.9869 32.5062 18.9985 33.2489 18.9459C35.0322 18.9459 35.8395 18.6759 36.0499 16.1209C43.801 16.1209 42.8187 14.3065 42.8187 10H21.3458V13.7664Z" fill="#4F738E"/>
<path fill-rule="evenodd" clip-rule="evenodd" d="M12.5218 33.4148C12.5218 32.443 13.8437 32.3159 14.4156 32.3159C14.4156 30.8692 14.9177 30.9984 15.4677 30.9984C15.6958 30.9785 15.876 30.9732 16.0989 30.9984C16.6354 30.9984 16.877 31.1245 16.9406 32.3159C19.2697 32.3159 18.9749 33.1627 18.9749 35.1725H12.5218V33.4148Z" fill="#B3BDC7"/>
<path fill-rule="evenodd" clip-rule="evenodd" d="M45.2938 33.1975C45.2938 32.2267 46.6157 32.0986 47.1875 32.0986C47.1875 30.6519 47.6886 30.7811 48.2386 30.7811C48.4677 30.7611 48.6469 30.7569 48.8698 30.7811C49.4063 30.7811 49.648 30.9072 49.7115 32.0986C52.0407 32.0986 51.7459 32.9464 51.7459 34.9552H45.2938V33.1975Z" fill="#B3BDC7"/>
<path fill-rule="evenodd" clip-rule="evenodd" d="M29.0041 37.3431C29.0041 36.3713 30.326 36.2441 30.8979 36.2441C30.8979 34.7974 31.3989 34.9267 31.9499 34.9267C32.1781 34.9067 32.3572 34.9015 32.5802 34.9267C33.1166 34.9267 33.3593 35.0527 33.4218 36.2441C35.751 36.2441 35.4562 37.0909 35.4562 39.0997H29.0041V37.3431Z" fill="#B3BDC7"/>
</svg>
