<svg width="22" height="18" viewBox="0 0 22 18" fill="none" xmlns="http://www.w3.org/2000/svg">
<path d="M19.9013 1.86572C18.7699 0.789279 17.2756 0.137034 15.688 0.0266776C14.1003 -0.083679 12.5239 0.35512 11.2432 1.2639C9.89318 0.298573 8.21283 -0.13915 6.54055 0.0388726C4.86826 0.216896 3.32825 0.997442 2.23063 2.22333C1.13301 3.44922 0.559321 5.02938 0.625083 6.64562C0.690846 8.26187 1.39118 9.79412 2.58505 10.9338L8.95133 17.1051C9.54817 17.6781 10.3572 18 11.2008 18C12.0443 18 12.8533 17.6781 13.4502 17.1051L19.8165 10.9338C20.4435 10.3449 20.9432 9.64268 21.287 8.86749C21.6308 8.09229 21.8118 7.25942 21.8197 6.41674C21.8276 5.57407 21.6622 4.7382 21.333 3.95718C21.0038 3.17616 20.5172 2.46539 19.9013 1.86572ZM18.4053 9.47519L12.039 15.5954C11.9403 15.691 11.823 15.7669 11.6937 15.8187C11.5644 15.8705 11.4257 15.8971 11.2856 15.8971C11.1456 15.8971 11.0069 15.8705 10.8776 15.8187C10.7483 15.7669 10.6309 15.691 10.5323 15.5954L4.16601 9.47519C3.33389 8.65747 2.86793 7.55902 2.86793 6.41508C2.86793 5.27115 3.33389 4.17269 4.16601 3.35497C5.01395 2.55015 6.15757 2.09887 7.34915 2.09887C8.54073 2.09887 9.68435 2.55015 10.5323 3.35497C10.6309 3.45058 10.7483 3.52646 10.8776 3.57825C11.0069 3.63004 11.1456 3.6567 11.2856 3.6567C11.4257 3.6567 11.5644 3.63004 11.6937 3.57825C11.823 3.52646 11.9403 3.45058 12.039 3.35497C12.8869 2.55015 14.0305 2.09887 15.2221 2.09887C16.4137 2.09887 17.5573 2.55015 18.4053 3.35497C19.2438 4.1736 19.7137 5.2764 19.7137 6.42528C19.7137 7.57417 19.2438 8.67696 18.4053 9.49559V9.47519Z" fill="#B3BDCA"/>
</svg>
