<svg width="68" height="42" viewBox="0 0 68 42" fill="none" xmlns="http://www.w3.org/2000/svg">
<g clip-path="url(#clip0_1098_9157)">
<path fill-rule="evenodd" clip-rule="evenodd" d="M13.6989 31.4521L0.144897 33.2416V4.46275L34 -0.0065918L67.8551 4.46275V33.2416L54.3163 31.4541L53.2341 32.7468C48.6169 38.261 41.5511 41.4816 34 41.4816C26.3772 41.4816 19.2529 38.1995 14.6425 32.5977L13.6989 31.4521V31.4521Z" fill="white"/>
<path fill-rule="evenodd" clip-rule="evenodd" d="M34 40.0262C41.3184 40.0262 47.8296 36.8253 51.9912 31.8549L44.6431 30.8846C41.7525 33.0992 38.0444 34.4307 34 34.4307C29.8761 34.4307 26.1015 33.0464 23.187 30.7529L15.8932 31.7159C20.0495 36.7653 26.6136 40.0262 34 40.0262Z" fill="#EC691F"/>
<path fill-rule="evenodd" clip-rule="evenodd" d="M34 1.46338L1.71727 5.7255V31.5635L34 27.3019L66.2828 31.5635V5.7255L34 1.46338Z" fill="#55718A"/>
<path d="M23.1163 18.7897V10.7632H9.04557C8.91166 14.0178 8.36086 16.6904 7.50354 18.7897H6.10222V22.8814H10.1304V21.9218C14.0896 21.9218 16.7097 21.9218 20.6694 21.9218V22.8814H24.503V18.7897H23.1163ZM13.5895 18.7897C14.0143 17.5081 14.2884 16.0701 14.4186 14.3557H16.9702V18.7897C14.8491 18.7897 15.8027 18.7897 13.5895 18.7897Z" fill="white"/>
<path d="M33.1463 22.267C30.3589 22.267 28.2906 21.7814 26.9442 20.8106C25.5983 19.8423 24.9246 18.3481 24.9246 16.3359C24.9246 14.3315 25.5983 12.8427 26.9416 11.8743C28.2854 10.9031 30.3536 10.418 33.1463 10.418C35.939 10.418 38.0104 10.9031 39.3589 11.8743C40.7079 12.8427 41.3843 14.3315 41.3843 16.3359C41.3843 18.3481 40.7079 19.8423 39.3589 20.8106C38.0104 21.7814 35.939 22.267 33.1463 22.267ZM33.1463 18.9311C33.7599 18.9311 34.2359 18.7258 34.579 18.3157C34.9227 17.9051 35.0958 17.3294 35.0958 16.5911C35.0958 15.8179 34.9337 15.2374 34.6094 14.8495C34.2846 14.4617 33.795 14.2666 33.1463 14.2666C32.4977 14.2666 32.0081 14.4617 31.6838 14.8495C31.3595 15.2374 31.1968 15.8179 31.1968 16.5911C31.1968 17.3343 31.3674 17.91 31.7079 18.3181C32.0484 18.7258 32.527 18.9311 33.1463 18.9311V18.9311Z" fill="white"/>
<path d="M48.2523 17.0554V21.9218H42.5884V10.7632H50.2803L52.0943 16.212L53.8973 10.7632H61.597V21.9218H55.941V17.1203L53.7786 21.9218H50.4074L48.2523 17.0554Z" fill="white"/>
<path d="M32.4501 30.3603V30.5762H32.0343V30.3603C32.0343 30.2944 31.9668 30.1918 31.8203 30.1918C31.6739 30.1918 31.619 30.2988 31.619 30.3603V31.5165C31.619 31.6554 31.6974 31.7261 31.8135 31.7261C31.9297 31.7261 32.0343 31.6946 32.0343 31.5131V31.2768H32.4501V31.5533C32.4501 31.6365 32.4334 31.713 32.401 31.7823C32.368 31.8515 32.3241 31.912 32.2681 31.9638C32.2116 32.0161 32.1457 32.0563 32.0693 32.0849C31.993 32.1134 31.9114 32.128 31.824 32.128C31.7372 32.128 31.6561 32.1134 31.5813 32.0849C31.5065 32.0563 31.4411 32.0161 31.3851 31.9638C31.3292 31.912 31.2858 31.8515 31.2544 31.7823C31.2235 31.713 31.2078 31.6365 31.2078 31.5533V30.3603C31.2078 30.2794 31.2235 30.2029 31.2544 30.1313C31.2858 30.0591 31.3292 29.9972 31.3851 29.9453C31.4411 29.8935 31.5065 29.8524 31.5813 29.8219C31.6561 29.7919 31.7372 29.7769 31.824 29.7769C31.9114 29.7769 31.993 29.7919 32.0693 29.8219C32.1457 29.8524 32.2116 29.8935 32.2681 29.9453C32.3241 29.9972 32.368 30.0591 32.401 30.1313C32.4334 30.2029 32.4501 30.2794 32.4501 30.3603V30.3603Z" fill="#C5C6C6"/>
<path d="M34.3248 31.4744V30.8963H34.1234C34.0403 30.8963 33.9147 30.9234 33.909 31.0928V31.47C33.909 31.67 33.9733 31.7261 34.1172 31.7261C34.261 31.7261 34.3248 31.6579 34.3248 31.4744ZM33.9833 32.111C33.6684 32.111 33.4984 31.8665 33.4984 31.6104V31.0822C33.4984 31.0013 33.5141 30.9258 33.5449 30.8551C33.5758 30.7844 33.6197 30.7234 33.6757 30.6716C33.7317 30.6198 33.797 30.5786 33.8718 30.5481C33.9466 30.5181 34.0277 30.5026 34.1146 30.5026H34.3248C34.3248 30.4624 34.3248 30.4566 34.3248 30.4165C34.3248 30.2422 34.2171 30.1918 34.0622 30.1918H33.614V29.8069H34.1146C34.2019 29.8069 34.284 29.8214 34.3599 29.8505C34.4357 29.879 34.5022 29.9192 34.5581 29.971C34.6146 30.0228 34.6586 30.0843 34.6915 30.155C34.7239 30.2257 34.7407 30.3027 34.7407 30.386C34.7407 30.8309 34.7407 31.1964 34.7407 31.6409C34.7407 31.8171 34.5953 32.1159 34.2798 32.111C34.1805 32.1091 34.0832 32.111 33.9833 32.111V32.111Z" fill="#C5C6C6"/>
<path d="M35.7889 31.5781C35.7889 31.9011 35.9485 32.1112 36.2895 32.1112C36.3643 32.1112 36.5003 32.1112 36.5751 32.1112C36.8774 32.1112 37.0312 31.8986 37.0312 31.5883V29.6298C37.0312 29.5524 37.0145 29.4778 36.9821 29.4071C36.9496 29.3369 36.9052 29.2754 36.8487 29.2236C36.7927 29.1718 36.7268 29.1297 36.6504 29.0982C36.5741 29.0668 36.4925 29.0508 36.4051 29.0508H35.8737V29.4357C36.0458 29.4357 36.1954 29.4357 36.3674 29.4357C36.539 29.4357 36.6154 29.5408 36.6154 29.6536V29.807H36.4051C36.3183 29.807 36.2372 29.8221 36.1624 29.8526C36.0876 29.8826 36.0222 29.9237 35.9663 29.9755C35.9103 30.0273 35.8669 30.0888 35.8355 30.1595C35.8046 30.2297 35.7889 30.3057 35.7889 30.3861V31.5781V31.5781ZM36.2001 31.4687V30.3832C36.2001 30.266 36.29 30.192 36.4051 30.192H36.6154C36.6154 30.6175 36.6154 31.0436 36.6154 31.4692C36.6154 31.6575 36.5631 31.7263 36.4015 31.7263C36.2398 31.7263 36.2001 31.642 36.2001 31.4687V31.4687Z" fill="#C5C6C6"/>
</g>
<defs>
<clipPath id="clip0_1098_9157">
<rect width="68" height="42" fill="white"/>
</clipPath>
</defs>
</svg>
