<svg width="64" height="64" viewBox="0 0 64 64" fill="none" xmlns="http://www.w3.org/2000/svg">
<path fill-rule="evenodd" clip-rule="evenodd" d="M10.968 11.2219H32.3594V34.5053L26.7567 35.9967L26.9024 42.7635L32.3594 43.5271V52.9871H10.968V11.2219Z" fill="#EC691F"/>
<path d="M49.9878 36.0022H49.9859H49.9777C49.9712 36.0022 49.9648 36.0031 49.9584 36.0031C49.9511 36.0031 49.9447 36.004 49.9383 36.004C49.9318 36.0049 49.9245 36.0058 49.9181 36.0058C49.9117 36.0068 49.9053 36.0068 49.8988 36.0077C49.8915 36.0086 49.8851 36.0095 49.8787 36.0104C49.8723 36.0123 49.8649 36.0132 49.8585 36.0141C49.8521 36.015 49.8457 36.0159 49.8383 36.0177C49.8319 36.0187 49.8255 36.0205 49.8191 36.0214C49.8117 36.0233 49.8053 36.0251 49.7989 36.0269C49.7925 36.0278 49.7861 36.0297 49.7788 36.0315C49.7723 36.0333 49.7659 36.0352 49.7595 36.037C49.7531 36.0388 49.7467 36.0407 49.7393 36.0425C49.7329 36.0452 49.7265 36.0471 49.7201 36.0489C49.7137 36.0517 49.7063 36.0544 49.6999 36.0562C49.6935 36.0581 49.6871 36.0608 49.6807 36.0636C49.6733 36.0663 49.6669 36.0691 49.6605 36.0718C49.6541 36.0746 49.6477 36.0764 49.6413 36.0792C49.6348 36.0819 49.6284 36.0856 49.622 36.0883C49.6156 36.0911 49.6092 36.0938 49.6027 36.0975C49.5954 36.1003 49.589 36.1039 49.5835 36.1076C49.5771 36.1103 49.5707 36.114 49.5643 36.1168C49.5569 36.1204 49.5505 36.1241 49.5441 36.1268C49.5377 36.1314 49.5322 36.1342 49.5257 36.1378C49.5193 36.1415 49.512 36.1452 49.5056 36.1498C49.5001 36.1534 49.4937 36.1571 49.4873 36.1617C49.4808 36.1653 49.4744 36.169 49.468 36.1736C49.4616 36.1772 49.4552 36.1809 49.4487 36.1855C49.4423 36.1901 49.4368 36.1947 49.4304 36.1983C49.424 36.2029 49.4176 36.2075 49.4112 36.2121C49.4057 36.2167 49.3983 36.2213 49.3928 36.2258C49.3864 36.2304 49.38 36.235 49.3736 36.2396C49.3681 36.2451 49.3617 36.2497 49.3553 36.2543L49.3369 36.2689L49.3177 36.2845C49.3122 36.29 49.3058 36.2946 49.2993 36.3001L49.2819 36.3166C49.2755 36.3212 49.2691 36.3267 49.2636 36.3322C49.2572 36.3386 49.2517 36.3441 49.2453 36.3496C49.2388 36.3551 49.2333 36.3606 49.2269 36.3661C49.2214 36.3725 49.215 36.378 49.2095 36.3844L49.1912 36.4018C49.1857 36.4083 49.1793 36.4138 49.1738 36.4202C49.1683 36.4266 49.1618 36.4321 49.1563 36.4394C49.1499 36.4449 49.1444 36.4513 49.138 36.4578C49.1334 36.4642 49.127 36.4706 49.1215 36.477C49.1151 36.4843 49.1096 36.4908 49.1041 36.4972C49.0986 36.5036 49.0922 36.5109 49.0867 36.5173C49.0812 36.5238 49.0747 36.5302 49.0692 36.5375L49.0527 36.5577C49.0473 36.565 49.0408 36.5723 49.0353 36.5797L49.0188 36.6007L49.0023 36.6227L48.9858 36.6448L48.9693 36.6667L48.9528 36.6897L48.9363 36.7126L48.9207 36.7355L48.9043 36.7593L48.8887 36.7832L48.8731 36.8079L48.8575 36.8327C48.8529 36.8409 48.8474 36.8492 48.8419 36.8574L48.8272 36.8822C48.4688 37.4798 48.2406 38.303 48.2406 39.1986C48.2406 40.0951 48.4688 40.9183 48.8272 41.5159C49.1508 42.0558 49.5707 42.3959 49.9978 42.3959C50.4259 42.3959 50.8448 42.0558 51.1693 41.5159C51.5277 40.9183 51.7551 40.0951 51.7551 39.1986C51.7551 38.3012 51.5259 37.4753 51.1657 36.8776C51.0181 36.6337 50.8522 36.4312 50.6743 36.2817L50.6734 36.2808L50.6597 36.2689H50.6587C50.4497 36.0984 50.2252 36.0022 49.9978 36.0022H49.9878ZM12.2449 51.7551H30.878V44.6408H29.1208C29.1024 44.6408 29.085 44.6408 29.0667 44.6399C29.0492 44.6399 29.0309 44.6399 29.0135 44.639C28.9952 44.639 28.9787 44.6381 28.9603 44.6372C28.9429 44.6362 28.9255 44.6353 28.9072 44.6335C28.8897 44.6326 28.8723 44.6307 28.8549 44.6298C28.8366 44.628 28.8192 44.6271 28.8027 44.6243C28.7852 44.6234 28.7669 44.6216 28.7495 44.6188C28.7321 44.617 28.7156 44.6152 28.6982 44.6124C28.6808 44.6097 28.6633 44.6069 28.6459 44.6051C28.6285 44.6023 28.612 44.5996 28.5946 44.5968C28.5772 44.5932 28.5607 44.5904 28.5433 44.5877C28.5258 44.584 28.5093 44.5813 28.4919 44.5767C28.4745 44.5739 28.458 44.5703 28.4406 44.5666C28.3049 44.5363 28.172 44.496 28.0418 44.4483C27.3424 44.1917 26.7255 43.6884 26.2397 43.0073C25.5439 42.0329 25.1186 40.6891 25.1186 39.1995C25.1186 37.709 25.5439 36.3652 26.2397 35.3908C26.8392 34.552 27.6367 33.9827 28.5433 33.8104C28.5607 33.8077 28.5772 33.8049 28.5946 33.8013C28.612 33.7985 28.6285 33.7958 28.6459 33.7939C28.6633 33.7912 28.6808 33.7884 28.6982 33.7857C28.7156 33.7838 28.7321 33.7811 28.7495 33.7793C28.7669 33.7774 28.7852 33.7747 28.8027 33.7738C28.8192 33.7719 28.8375 33.7701 28.8549 33.7683C28.8723 33.7673 28.8897 33.7655 28.9072 33.7646C28.9255 33.7628 28.9429 33.7618 28.9603 33.7609C28.9787 33.76 28.9952 33.7591 29.0135 33.7591C29.0309 33.7582 29.0492 33.7582 29.0667 33.7582C29.085 33.7572 29.1024 33.7572 29.1208 33.7572H30.878V12.2449H12.2449V51.7551ZM32 54H11.122C10.7947 54 10.517 53.8854 10.3163 53.6838C10.1146 53.483 10 53.2053 10 52.8771V11.122C10 10.7947 10.1146 10.517 10.3163 10.3153C10.517 10.1146 10.7947 10 11.122 10H32H52.878C53.2053 10 53.483 10.1146 53.6847 10.3153C53.8854 10.517 54 10.7947 54 11.122V39.1995V39.2142C53.9972 40.6992 53.5728 42.0366 52.8789 43.0073C52.1557 44.0202 51.1427 44.6408 49.9978 44.6408H33.122V52.878C33.122 53.2053 33.0074 53.483 32.8067 53.6838C32.6068 53.8845 32.3282 53.9982 32 53.9982V54ZM51.756 34.2926V32.3162C51.6002 32.2622 51.4636 32.1769 51.3517 32.0651C51.151 31.8634 51.0355 31.5857 51.0355 31.2584C51.0355 30.9669 51.173 30.6846 51.3783 30.4792C51.4865 30.3711 51.6148 30.2822 51.756 30.2217V27.996C51.6002 27.9428 51.4636 27.8576 51.3517 27.7448C51.151 27.5441 51.0355 27.2663 51.0355 26.9391C51.0355 26.6476 51.173 26.3652 51.3783 26.159C51.4865 26.0518 51.6148 25.9628 51.756 25.9023V23.6767C51.6002 23.6235 51.4636 23.5382 51.3517 23.4255C51.151 23.2248 51.0355 22.947 51.0355 22.6188H51.0373C51.0373 22.3273 51.1739 22.045 51.3783 21.8397C51.4865 21.7315 51.6148 21.6426 51.756 21.583V19.3573C51.6002 19.3042 51.4636 19.218 51.3517 19.1062C51.151 18.9054 51.0355 18.6267 51.0355 18.2995C51.0355 18.008 51.173 17.7257 51.3783 17.5203C51.4865 17.4122 51.6148 17.3233 51.756 17.2628V15.038C51.6002 14.9839 51.4636 14.8987 51.3517 14.7868C51.151 14.5852 51.0355 14.3074 51.0355 13.9802C51.0355 13.6887 51.173 13.4063 51.3783 13.201C51.4865 13.0928 51.6148 13.0039 51.756 12.9434V12.2449H51.0483C50.9943 12.3907 50.9118 12.5199 50.8045 12.6272C50.6038 12.8279 50.3251 12.9425 49.9978 12.9425C49.6715 12.9425 49.3928 12.8279 49.1912 12.6272C49.0848 12.5199 49.0023 12.3907 48.9482 12.2449H46.7281C46.6749 12.3907 46.5915 12.5199 46.4852 12.6272C46.2835 12.8279 46.0058 12.9425 45.6785 12.9425C45.3512 12.9425 45.0726 12.8279 44.8718 12.6272C44.7655 12.5199 44.683 12.3907 44.6289 12.2449H42.4087C42.3556 12.3907 42.2722 12.5199 42.1649 12.6272C41.9642 12.8279 41.6864 12.9425 41.3592 12.9425C41.0319 12.9425 40.7533 12.8279 40.5525 12.6272C40.4453 12.5199 40.3627 12.3907 40.3087 12.2449H38.0894C38.0353 12.3907 37.9528 12.5199 37.8456 12.6272C37.6448 12.8279 37.3662 12.9425 37.0389 12.9425C36.7126 12.9425 36.4339 12.8279 36.2332 12.6272C36.1259 12.5199 36.0434 12.3907 35.9893 12.2449H33.7701C33.716 12.3907 33.6335 12.5199 33.5263 12.6272C33.4144 12.739 33.2778 12.8242 33.1229 12.8783V15.0829C33.2778 15.1361 33.4144 15.2213 33.5263 15.3341C33.727 15.5348 33.8425 15.8126 33.8425 16.1398C33.8425 16.4671 33.727 16.7458 33.5263 16.9465C33.4144 17.0583 33.2778 17.1436 33.1229 17.1977V19.4023C33.2778 19.4554 33.4144 19.5407 33.5263 19.6534C33.727 19.8542 33.8425 20.1328 33.8425 20.4601C33.8425 20.7864 33.727 21.0651 33.5263 21.2658C33.4144 21.3786 33.2778 21.4629 33.1229 21.517V23.7216C33.2778 23.7747 33.4144 23.86 33.5263 23.9728C33.727 24.1735 33.8425 24.4522 33.8425 24.7794C33.8425 25.1057 33.727 25.3844 33.5263 25.5861C33.4144 25.6979 33.2778 25.7832 33.1229 25.8373V28.0409C33.2778 28.095 33.4144 28.1793 33.5263 28.2921C33.727 28.4928 33.8425 28.7715 33.8425 29.0987C33.8425 29.426 33.727 29.7038 33.5263 29.9054C33.4144 30.0173 33.2778 30.1025 33.1229 30.1566V32.3603C33.2778 32.4143 33.4144 32.4996 33.5263 32.6114C33.727 32.8122 33.8425 33.0908 33.8425 33.4181C33.8425 33.5382 33.8269 33.6518 33.7976 33.7572H35.9618C35.9325 33.6518 35.9169 33.5382 35.9169 33.4181C35.9169 33.1275 36.0544 32.8443 36.2598 32.6389C36.4651 32.4327 36.7483 32.2952 37.0389 32.2952C37.3662 32.2952 37.6448 32.4107 37.8456 32.6114C38.0473 32.8122 38.1618 33.0908 38.1618 33.4181C38.1618 33.5382 38.1463 33.6518 38.1169 33.7572H40.2821C40.2518 33.6518 40.2363 33.5382 40.2363 33.4181C40.2363 33.1275 40.3738 32.8443 40.58 32.6389C40.7853 32.4327 41.0677 32.2952 41.3592 32.2952C41.6864 32.2952 41.9642 32.4107 42.1649 32.6114C42.3666 32.8122 42.4812 33.0908 42.4812 33.4181C42.4812 33.5382 42.4656 33.6518 42.4362 33.7572H44.6014C44.5712 33.6518 44.5565 33.5382 44.5565 33.4181C44.5565 33.1275 44.6931 32.8443 44.8993 32.6389C45.1047 32.4327 45.387 32.2952 45.6785 32.2952C46.0058 32.2952 46.2835 32.4107 46.4852 32.6114C46.6859 32.8122 46.8005 33.0908 46.8005 33.4181C46.8005 33.5382 46.7858 33.6518 46.7556 33.7572H48.9207C48.8914 33.6518 48.8758 33.5382 48.8758 33.4181C48.8758 33.1275 49.0124 32.8443 49.2187 32.6389C49.424 32.4327 49.7072 32.2952 49.9978 32.2952C50.3251 32.2952 50.6038 32.4107 50.8045 32.6114C51.0052 32.8122 51.1208 33.0908 51.1208 33.4181C51.1208 33.606 51.0832 33.7774 51.0126 33.9268C51.272 34.0167 51.5204 34.1395 51.756 34.2926ZM46.7428 36.0022H32H31.9844H29.1208C28.6927 36.0022 28.2728 36.3423 27.9492 36.8822C27.5908 37.4798 27.3626 38.303 27.3626 39.1986C27.3626 40.0951 27.5908 40.9183 27.9492 41.5159C28.2728 42.0558 28.6927 42.3959 29.1208 42.3959H32H46.7428C46.2945 41.5452 46.0232 40.503 45.9984 39.3691L45.9975 39.3352L45.9966 39.3132V39.2673V39.2637V39.2582C45.9966 39.238 45.9957 39.2188 45.9957 39.1995V39.1986C45.9957 39.1793 45.9966 39.1601 45.9966 39.1399V39.1344V39.1308C45.9966 39.1152 45.9966 39.0996 45.9966 39.0849L45.9975 39.0629L45.9984 39.029V39.0281C46.0232 37.8951 46.2945 36.8528 46.7428 36.0022ZM34.0735 14.7868C33.8727 14.5852 33.7572 14.3074 33.7572 13.9802C33.7572 13.6887 33.8948 13.4063 34.1001 13.201C34.3063 12.9948 34.5887 12.8573 34.8802 12.8573C35.2065 12.8573 35.4852 12.9727 35.6868 13.1735C35.8876 13.3742 36.0022 13.6529 36.0022 13.9802C36.0022 14.3074 35.8876 14.5852 35.6868 14.7868C35.4852 14.9876 35.2065 15.1022 34.8802 15.1022C34.5529 15.1022 34.2743 14.9876 34.0735 14.7868ZM36.2332 16.9465C36.0315 16.7458 35.9169 16.4671 35.9169 16.1398H35.9188C35.9188 15.8483 36.0553 15.5651 36.2598 15.3598C36.4651 15.1544 36.7483 15.0178 37.0389 15.0178C37.3662 15.0178 37.6448 15.1324 37.8456 15.3341C38.0473 15.5348 38.1618 15.8126 38.1618 16.1398C38.1618 16.4671 38.0473 16.7458 37.8456 16.9465C37.6448 17.1482 37.3662 17.2628 37.0389 17.2628C36.7126 17.2628 36.4339 17.1482 36.2332 16.9465ZM38.3928 14.7868C38.1921 14.5852 38.0775 14.3074 38.0775 13.9802C38.0775 13.6887 38.2141 13.4063 38.4194 13.201C38.6257 12.9948 38.908 12.8573 39.1995 12.8573C39.5258 12.8573 39.8045 12.9727 40.0062 13.1735C40.2069 13.3742 40.3215 13.6529 40.3215 13.9802C40.3215 14.3074 40.2069 14.5852 40.0062 14.7868C39.8045 14.9876 39.5258 15.1022 39.1995 15.1022C38.8723 15.1022 38.5936 14.9876 38.3928 14.7868ZM42.7122 14.7868C42.5114 14.5852 42.3968 14.3074 42.3968 13.9802C42.3968 13.6887 42.5334 13.4063 42.7388 13.201C42.945 12.9948 43.2283 12.8573 43.5188 12.8573C43.8461 12.8573 44.1247 12.9727 44.3255 13.1735C44.5262 13.3742 44.6418 13.6529 44.6418 13.9802C44.6418 14.3074 44.5262 14.5852 44.3255 14.7868C44.1247 14.9876 43.8461 15.1022 43.5188 15.1022C43.1916 15.1022 42.9138 14.9876 42.7122 14.7868ZM40.5525 16.9465C40.3518 16.7458 40.2363 16.4671 40.2363 16.1398H40.2381C40.2381 15.8483 40.3747 15.5651 40.58 15.3598C40.7853 15.1544 41.0677 15.0178 41.3592 15.0178C41.6864 15.0178 41.9642 15.1324 42.1649 15.3341C42.3666 15.5348 42.4812 15.8126 42.4812 16.1398C42.4812 16.4671 42.3666 16.7458 42.1649 16.9465C41.9642 17.1482 41.6864 17.2628 41.3592 17.2628C41.0319 17.2628 40.7533 17.1482 40.5525 16.9465ZM44.8718 16.9465C44.6711 16.7458 44.5565 16.4671 44.5565 16.1398H44.5583C44.5583 15.8483 44.6949 15.5651 44.8993 15.3598C45.1047 15.1544 45.387 15.0178 45.6785 15.0178C46.0058 15.0178 46.2835 15.1324 46.4852 15.3341C46.6859 15.5348 46.8005 15.8126 46.8005 16.1398C46.8005 16.4671 46.6859 16.7458 46.4852 16.9465C46.2835 17.1482 46.0058 17.2628 45.6785 17.2628C45.3512 17.2628 45.0726 17.1482 44.8718 16.9465ZM47.0324 14.7868C46.8307 14.5852 46.7162 14.3074 46.7162 13.9802C46.7162 13.6887 46.8537 13.4063 47.059 13.201C47.2643 12.9948 47.5476 12.8573 47.8382 12.8573C48.1654 12.8573 48.4441 12.9727 48.6448 13.1735C48.8465 13.3742 48.9611 13.6529 48.9611 13.9802C48.9611 14.3074 48.8465 14.5852 48.6448 14.7868C48.4441 14.9876 48.1654 15.1022 47.8382 15.1022C47.5109 15.1022 47.2332 14.9876 47.0324 14.7868ZM49.1912 16.9465C48.9904 16.7458 48.8758 16.4671 48.8758 16.1398H48.8777C48.8777 15.8483 49.0143 15.5651 49.2187 15.3598C49.424 15.1544 49.7063 15.0178 49.9978 15.0178C50.3251 15.0178 50.6038 15.1324 50.8045 15.3341C51.0052 15.5348 51.1208 15.8126 51.1208 16.1398C51.1208 16.4671 51.0052 16.7458 50.8045 16.9465C50.6038 17.1482 50.3251 17.2628 49.9978 17.2628C49.6715 17.2628 49.3928 17.1482 49.1912 16.9465ZM34.0735 19.1062C33.8727 18.9054 33.7572 18.6267 33.7572 18.2995C33.7572 18.008 33.8948 17.7257 34.1001 17.5203C34.3063 17.3141 34.5887 17.1775 34.8802 17.1775C35.2065 17.1775 35.4852 17.2921 35.6859 17.4928C35.8876 17.6945 36.0022 17.9732 36.0022 18.2995C36.0022 18.6267 35.8876 18.9054 35.6859 19.1062C35.4852 19.3069 35.2065 19.4215 34.8802 19.4215C34.552 19.4215 34.2743 19.3069 34.0735 19.1062ZM34.0735 23.4255C33.8727 23.2248 33.7572 22.947 33.7572 22.6188H33.7591C33.7591 22.3282 33.8957 22.0459 34.1001 21.8415V21.8397C34.3063 21.6334 34.5887 21.4968 34.8793 21.4968C35.2065 21.4968 35.4852 21.6114 35.6868 21.8131C35.8876 22.0138 36.0022 22.2925 36.0022 22.6188C36.0022 22.947 35.8876 23.2248 35.6859 23.4255C35.4852 23.6263 35.2065 23.7418 34.8802 23.7418C34.552 23.7418 34.2743 23.6263 34.0735 23.4255ZM36.2332 21.2658C36.0315 21.0651 35.9169 20.7864 35.9169 20.4601C35.9169 20.1686 36.0544 19.8863 36.2598 19.68C36.4651 19.4747 36.7483 19.3372 37.0389 19.3372C37.3662 19.3372 37.6448 19.4527 37.8456 19.6534C38.0473 19.8542 38.1618 20.1319 38.1618 20.4601C38.1618 20.7864 38.0473 21.0651 37.8456 21.2658C37.6448 21.4675 37.3662 21.5821 37.0389 21.5821C36.7126 21.5821 36.4339 21.4675 36.2332 21.2658ZM38.3928 19.1062C38.1921 18.9054 38.0775 18.6267 38.0775 18.2995C38.0775 18.008 38.2141 17.7257 38.4194 17.5203C38.6257 17.3141 38.908 17.1775 39.1995 17.1775C39.5258 17.1775 39.8045 17.2921 40.0062 17.4928C40.2069 17.6945 40.3215 17.9732 40.3215 18.2995C40.3215 18.6267 40.2069 18.9054 40.0062 19.1062C39.8045 19.3069 39.5258 19.4215 39.1995 19.4215C38.8723 19.4215 38.5936 19.3069 38.3928 19.1062ZM42.7131 19.1062C42.5114 18.9054 42.3968 18.6267 42.3968 18.2995C42.3968 18.008 42.5334 17.7257 42.7388 17.5203C42.945 17.3141 43.2283 17.1775 43.5188 17.1775C43.8461 17.1775 44.1247 17.2921 44.3255 17.4928C44.5262 17.6945 44.6418 17.9732 44.6418 18.2995C44.6418 18.6267 44.5262 18.9054 44.3255 19.1062C44.1247 19.3069 43.8461 19.4215 43.5188 19.4215C43.1916 19.4215 42.9138 19.3069 42.7131 19.1062ZM38.3928 23.4255C38.1921 23.2248 38.0775 22.947 38.0775 22.6188H38.0784C38.0784 22.3273 38.215 22.045 38.4194 21.8397C38.6257 21.6334 38.908 21.4968 39.1995 21.4968C39.5258 21.4968 39.8045 21.6114 40.0062 21.8131C40.2069 22.0138 40.3215 22.2925 40.3215 22.6188C40.3215 22.947 40.2069 23.2248 40.0062 23.4255C39.8045 23.6263 39.5258 23.7418 39.1995 23.7418C38.8723 23.7418 38.5936 23.6263 38.3928 23.4255ZM42.7131 23.4255C42.5114 23.2248 42.3968 22.947 42.3968 22.6188H42.3978C42.3978 22.3273 42.5343 22.045 42.7388 21.8397C42.945 21.6334 43.2283 21.4968 43.5188 21.4968C43.8461 21.4968 44.1247 21.6114 44.3255 21.8131C44.5262 22.0138 44.6418 22.2925 44.6418 22.6188C44.6418 22.947 44.5262 23.2248 44.3255 23.4255C44.1247 23.6263 43.8461 23.7418 43.5188 23.7418C43.1916 23.7418 42.9138 23.6263 42.7131 23.4255ZM40.5525 21.2658C40.3518 21.0651 40.2363 20.7864 40.2363 20.4601C40.2363 20.1686 40.3738 19.8863 40.58 19.68C40.7853 19.4747 41.0677 19.3372 41.3592 19.3372C41.6864 19.3372 41.9642 19.4527 42.1649 19.6534C42.3666 19.8542 42.4812 20.1319 42.4812 20.4601C42.4812 20.7864 42.3666 21.0651 42.1649 21.2658C41.9642 21.4675 41.6864 21.5821 41.3592 21.5821C41.0319 21.5821 40.7533 21.4675 40.5525 21.2658ZM44.8718 21.2658C44.6711 21.0651 44.5565 20.7864 44.5565 20.4601C44.5565 20.1686 44.6931 19.8863 44.8993 19.68C45.1047 19.4747 45.387 19.3372 45.6785 19.3372C46.0058 19.3372 46.2835 19.4527 46.4852 19.6534C46.6859 19.8542 46.8005 20.1319 46.8005 20.4601C46.8005 20.7864 46.6859 21.0651 46.4852 21.2658C46.2835 21.4675 46.0058 21.5821 45.6785 21.5821C45.3512 21.5821 45.0726 21.4675 44.8718 21.2658ZM47.0324 19.1062C46.8307 18.9054 46.7162 18.6267 46.7162 18.2995C46.7162 18.008 46.8537 17.7257 47.059 17.5203C47.2643 17.3141 47.5476 17.1775 47.8382 17.1775C48.1654 17.1775 48.4441 17.2921 48.6448 17.4928C48.8465 17.6945 48.9611 17.9732 48.9611 18.2995C48.9611 18.6267 48.8465 18.9054 48.6448 19.1062C48.4441 19.3069 48.1654 19.4215 47.8382 19.4215C47.5109 19.4215 47.2332 19.3069 47.0324 19.1062ZM47.0324 23.4255C46.8307 23.2248 46.7162 22.947 46.7162 22.6188H46.7171C46.7171 22.3273 46.8546 22.045 47.059 21.8397C47.2643 21.6334 47.5476 21.4968 47.8382 21.4968C48.1654 21.4968 48.4441 21.6114 48.6448 21.8131C48.8465 22.0138 48.9611 22.2925 48.9611 22.6188C48.9611 22.947 48.8465 23.2248 48.6448 23.4255C48.4441 23.6263 48.1654 23.7418 47.8382 23.7418C47.5118 23.7418 47.2332 23.6263 47.0324 23.4255ZM49.1912 21.2658C48.9904 21.0651 48.8758 20.7864 48.8758 20.4601C48.8758 20.1686 49.0124 19.8863 49.2187 19.68C49.424 19.4747 49.7072 19.3372 49.9978 19.3372C50.3251 19.3372 50.6038 19.4527 50.8045 19.6534C51.0052 19.8542 51.1208 20.1319 51.1208 20.4601C51.1208 20.7864 51.0052 21.0651 50.8045 21.2658C50.6038 21.4675 50.3251 21.5821 49.9978 21.5821C49.6715 21.5821 49.3928 21.4675 49.1912 21.2658ZM34.0735 27.7448C33.8727 27.5441 33.7572 27.2663 33.7572 26.9391C33.7572 26.6476 33.8948 26.3652 34.1001 26.159C34.3063 25.9537 34.5887 25.8162 34.8802 25.8162C35.2065 25.8162 35.4852 25.9308 35.6868 26.1324C35.8876 26.3332 36.0022 26.6118 36.0022 26.9391C36.0022 27.2663 35.8876 27.5441 35.6868 27.7448C35.4852 27.9465 35.2065 28.0611 34.8802 28.0611C34.552 28.0611 34.2743 27.9465 34.0735 27.7448ZM36.2332 25.5861C36.0315 25.3844 35.9169 25.1057 35.9169 24.7794C35.9169 24.4879 36.0544 24.2056 36.2598 23.9993C36.4651 23.794 36.7483 23.6565 37.0389 23.6565C37.3662 23.6565 37.6448 23.772 37.8456 23.9728C38.0473 24.1735 38.1618 24.4522 38.1618 24.7794C38.1618 25.1057 38.0473 25.3844 37.8456 25.5861C37.6448 25.7868 37.3662 25.9014 37.0389 25.9014C36.7126 25.9014 36.4339 25.7868 36.2332 25.5861ZM36.2332 29.9054C36.0315 29.7038 35.9169 29.426 35.9169 29.0987H35.9188C35.9188 28.8063 36.0553 28.5231 36.2598 28.3187C36.4651 28.1133 36.7483 27.9758 37.0389 27.9758C37.3662 27.9758 37.6448 28.0913 37.8456 28.2921C38.0473 28.4928 38.1618 28.7715 38.1618 29.0987C38.1618 29.426 38.0473 29.7038 37.8456 29.9054C37.6448 30.1062 37.3662 30.2208 37.0389 30.2208C36.7126 30.2208 36.4339 30.1062 36.2332 29.9054ZM38.3928 27.7448C38.1921 27.5441 38.0775 27.2663 38.0775 26.9391C38.0775 26.6476 38.2141 26.3652 38.4194 26.159C38.6257 25.9537 38.908 25.8162 39.1995 25.8162C39.5258 25.8162 39.8045 25.9308 40.0062 26.1324C40.2069 26.3332 40.3215 26.6118 40.3215 26.9391C40.3215 27.2663 40.2069 27.5441 40.0062 27.7448C39.8045 27.9465 39.5258 28.0611 39.1995 28.0611C38.8723 28.0611 38.5936 27.9465 38.3928 27.7448ZM42.7131 27.7448C42.5114 27.5441 42.3968 27.2663 42.3968 26.9391C42.3968 26.6476 42.5334 26.3652 42.7388 26.159C42.945 25.9537 43.2283 25.8162 43.5188 25.8162C43.8461 25.8162 44.1247 25.9317 44.3255 26.1324C44.5262 26.3332 44.6418 26.6118 44.6418 26.9391C44.6418 27.2663 44.5262 27.5441 44.3255 27.7448C44.1247 27.9465 43.8461 28.0611 43.5188 28.0611C43.1916 28.0611 42.9138 27.9465 42.7131 27.7448ZM40.5525 25.5861C40.3518 25.3844 40.2363 25.1057 40.2363 24.7794C40.2363 24.4879 40.3738 24.2056 40.58 23.9993C40.7853 23.794 41.0677 23.6565 41.3592 23.6565C41.6864 23.6565 41.9642 23.772 42.1649 23.9728C42.3666 24.1735 42.4812 24.4522 42.4812 24.7794C42.4812 25.1057 42.3666 25.3844 42.1649 25.5861C41.9642 25.7868 41.6864 25.9014 41.3592 25.9014C41.0319 25.9014 40.7533 25.7868 40.5525 25.5861ZM44.8718 25.5861C44.6711 25.3844 44.5565 25.1057 44.5565 24.7794C44.5565 24.4879 44.6931 24.2056 44.8993 23.9993C45.1047 23.794 45.387 23.6565 45.6785 23.6565C46.0058 23.6565 46.2835 23.772 46.4852 23.9728C46.6859 24.1735 46.8005 24.4522 46.8005 24.7794C46.8005 25.1057 46.6859 25.3844 46.4852 25.5861C46.2835 25.7868 46.0058 25.9014 45.6785 25.9014C45.3512 25.9014 45.0726 25.7868 44.8718 25.5861ZM40.5525 29.9054C40.3518 29.7038 40.2363 29.426 40.2363 29.0987H40.2381C40.2381 28.8063 40.3747 28.5231 40.58 28.3187C40.7853 28.1133 41.0677 27.9758 41.3592 27.9758C41.6864 27.9758 41.9642 28.0913 42.1649 28.2921C42.3666 28.4928 42.4812 28.7715 42.4812 29.0987C42.4812 29.426 42.3666 29.7038 42.1649 29.9054C41.9642 30.1062 41.6864 30.2208 41.3592 30.2208C41.0319 30.2208 40.7533 30.1062 40.5525 29.9054ZM44.8718 29.9054C44.6711 29.7038 44.5565 29.426 44.5565 29.0987H44.5583C44.5583 28.8063 44.6949 28.5231 44.8993 28.3187C45.1047 28.1133 45.387 27.9758 45.6785 27.9758C46.0058 27.9758 46.2835 28.0913 46.4852 28.2921C46.6859 28.4928 46.8005 28.7715 46.8005 29.0987C46.8005 29.426 46.6859 29.7038 46.4852 29.9054C46.2835 30.1062 46.0058 30.2208 45.6785 30.2208C45.3512 30.2208 45.0726 30.1062 44.8718 29.9054ZM47.0324 27.7448C46.8307 27.5441 46.7162 27.2663 46.7162 26.9391C46.7162 26.6476 46.8537 26.3652 47.059 26.159C47.2643 25.9537 47.5476 25.8162 47.8382 25.8162C48.1654 25.8162 48.4441 25.9317 48.6448 26.1324C48.8465 26.3332 48.9611 26.6118 48.9611 26.9391C48.9611 27.2663 48.8465 27.5441 48.6448 27.7448C48.4441 27.9465 48.1654 28.0611 47.8382 28.0611C47.5118 28.0611 47.2332 27.9465 47.0324 27.7448ZM49.1912 25.5861C48.9904 25.3844 48.8758 25.1057 48.8758 24.7794C48.8758 24.4879 49.0124 24.2056 49.2187 23.9993C49.424 23.794 49.7072 23.6565 49.9978 23.6565C50.3251 23.6565 50.6038 23.772 50.8045 23.9728C51.0052 24.1735 51.1208 24.4522 51.1208 24.7794C51.1208 25.1057 51.0052 25.3844 50.8045 25.5861C50.6038 25.7868 50.3251 25.9014 49.9978 25.9014C49.6715 25.9014 49.3928 25.7868 49.1912 25.5861ZM49.1912 29.9054C48.9904 29.7038 48.8758 29.4251 48.8758 29.0987H48.8777C48.8777 28.8063 49.0143 28.5231 49.2187 28.3187C49.424 28.1133 49.7063 27.9758 49.9978 27.9758C50.3251 27.9758 50.6038 28.0913 50.8045 28.2921C51.0052 28.4928 51.1208 28.7715 51.1208 29.0987C51.1208 29.426 51.0052 29.7038 50.8045 29.9054C50.6038 30.1062 50.3251 30.2208 49.9978 30.2208C49.6715 30.2208 49.3928 30.1062 49.1912 29.9054ZM34.0735 32.0651C33.8727 31.8634 33.7572 31.5857 33.7572 31.2584C33.7572 30.9669 33.8948 30.6846 34.1001 30.4792C34.3063 30.273 34.5887 30.1364 34.8802 30.1364C35.2065 30.1364 35.4852 30.251 35.6859 30.4518C35.8876 30.6525 36.0022 30.9312 36.0022 31.2584C36.0022 31.5857 35.8876 31.8634 35.6859 32.0651C35.4852 32.2658 35.2065 32.3804 34.8802 32.3804C34.552 32.3804 34.2743 32.2658 34.0735 32.0651ZM38.3928 32.0651C38.1921 31.8634 38.0775 31.5857 38.0775 31.2584C38.0775 30.9669 38.2141 30.6846 38.4194 30.4792C38.6257 30.273 38.908 30.1364 39.1995 30.1364C39.5258 30.1364 39.8045 30.251 40.0062 30.4518C40.2069 30.6525 40.3215 30.9312 40.3215 31.2584C40.3215 31.5857 40.2069 31.8634 40.0062 32.0651C39.8045 32.2658 39.5258 32.3804 39.1995 32.3804C38.8723 32.3804 38.5936 32.2658 38.3928 32.0651ZM42.7131 32.0651C42.5114 31.8634 42.3968 31.5857 42.3968 31.2584C42.3968 30.9669 42.5334 30.6846 42.7388 30.4792C42.945 30.273 43.2283 30.1364 43.5188 30.1364C43.8461 30.1364 44.1247 30.251 44.3255 30.4518C44.5262 30.6534 44.6418 30.9312 44.6418 31.2584C44.6418 31.5857 44.5262 31.8634 44.3255 32.0651C44.1247 32.2658 43.8461 32.3804 43.5188 32.3804C43.1916 32.3804 42.9138 32.2658 42.7131 32.0651ZM47.0324 32.0651C46.8307 31.8634 46.7162 31.5857 46.7162 31.2584C46.7162 30.9669 46.8537 30.6846 47.059 30.4792C47.2643 30.273 47.5476 30.1364 47.8382 30.1364C48.1654 30.1364 48.4441 30.251 48.6448 30.4518C48.8465 30.6525 48.9611 30.9312 48.9611 31.2584C48.9611 31.5857 48.8465 31.8634 48.6448 32.0651C48.4441 32.2658 48.1654 32.3804 47.8382 32.3804C47.5118 32.3804 47.2332 32.2658 47.0324 32.0651Z" fill="#4F738E"/>
<path d="M49.8952 42.935C51.1811 42.935 52.2235 41.3003 52.2235 39.2839C52.2235 37.2675 51.1811 35.6328 49.8952 35.6328C48.6093 35.6328 47.5669 37.2675 47.5669 39.2839C47.5669 41.3003 48.6093 42.935 49.8952 42.935Z" fill="#EC691F"/>
</svg>
