<svg width="113" height="28" viewBox="0 0 113 28" fill="none" xmlns="http://www.w3.org/2000/svg">
<path d="M10.5 17.0564L13.899 19.0195L12.997 15.3195L16 12.8301L12.0455 12.5037L10.5 9.01953L8.9545 12.5037L5 12.8301L7.9975 15.3195L7.101 19.0195L10.5 17.0564Z" fill="#FA8A4B"/>
<path d="M26.5 17.0564L29.899 19.0195L28.997 15.3195L32 12.8301L28.0455 12.5037L26.5 9.01953L24.9545 12.5037L21 12.8301L23.9975 15.3195L23.101 19.0195L26.5 17.0564Z" fill="#FA8A4B"/>
<path d="M40.9661 17.0564L44.3651 19.0195L43.4631 15.3195L46.4661 12.8301L42.5116 12.5037L40.9661 9.01953L39.4206 12.5037L35.4661 12.8301L38.4636 15.3195L37.5671 19.0195L40.9661 17.0564Z" fill="#FA8A4B"/>
<path d="M56.5 16.4632V10.5895L57.6115 13.1347L60.4585 13.3684L58.3005 15.1937L58.944 17.8968L56.5 16.4632ZM63 12.5726L58.3265 12.1874L56.5 8L54.6735 12.1874L50 12.5726L53.5425 15.56L52.483 20L56.5 17.6442L60.517 20L59.451 15.56L63 12.5726Z" fill="#FA8A4B"/>
<path d="M76.0455 12.4895L80 12.8105L76.997 15.3L77.899 19L74.5 17.0368L71.101 19L71.9975 15.3L69 12.8105L72.9545 12.4895L74.5 9L76.0455 12.4895Z" fill="#FA8A4B"/>
<path d="M76.0455 12.4895L80 12.8105L76.997 15.3L77.899 19L74.5 17.0368L71.101 19L71.9975 15.3L69 12.8105L72.9545 12.4895L74.5 9L76.0455 12.4895Z" fill="#F0F0F0"/>
<path d="M91.1166 19V17.2775H86.8136V16.179L89.9011 9.64H91.2141L88.1266 16.179H91.1166V13.5465H92.2866V16.179H93.2616V17.2775H92.2866V19H91.1166ZM94.7718 19V17.726H96.0458V19H94.7718ZM101.227 19.195C100.62 19.195 100.078 19.0585 99.6017 18.7855C99.1294 18.5082 98.7545 18.1333 98.4772 17.661C98.2042 17.1843 98.0677 16.6427 98.0677 16.036V12.604C98.0677 11.9973 98.2042 11.4557 98.4772 10.979C98.7545 10.5023 99.1294 10.1275 99.6017 9.8545C100.078 9.5815 100.62 9.445 101.227 9.445C101.833 9.445 102.375 9.5815 102.852 9.8545C103.328 10.1275 103.703 10.5023 103.976 10.979C104.249 11.4557 104.386 11.9973 104.386 12.604V16.036C104.386 16.6427 104.249 17.1843 103.976 17.661C103.703 18.1333 103.328 18.5082 102.852 18.7855C102.375 19.0585 101.833 19.195 101.227 19.195ZM101.227 18.0835C101.595 18.0835 101.929 17.9947 102.228 17.817C102.527 17.6393 102.765 17.401 102.943 17.102C103.12 16.7987 103.209 16.465 103.209 16.101V12.5325C103.209 12.1642 103.12 11.8305 102.943 11.5315C102.765 11.2325 102.527 10.9942 102.228 10.8165C101.929 10.6388 101.595 10.55 101.227 10.55C100.863 10.55 100.529 10.6388 100.226 10.8165C99.9267 10.9942 99.6884 11.2325 99.5107 11.5315C99.333 11.8305 99.2442 12.1642 99.2442 12.5325V16.101C99.2442 16.465 99.333 16.7987 99.5107 17.102C99.6884 17.401 99.9267 17.6393 100.226 17.817C100.529 17.9947 100.863 18.0835 101.227 18.0835ZM108.974 19.195C108.493 19.195 108.045 19.0953 107.629 18.896C107.217 18.6967 106.864 18.4237 106.569 18.077C106.279 17.726 106.071 17.323 105.945 16.868L107.057 16.569C107.135 16.8767 107.274 17.1432 107.473 17.3685C107.672 17.5895 107.904 17.7628 108.168 17.8885C108.437 18.0098 108.717 18.0705 109.007 18.0705C109.388 18.0705 109.731 17.9795 110.034 17.7975C110.342 17.6112 110.584 17.3663 110.762 17.063C110.94 16.7553 111.028 16.4195 111.028 16.0555C111.028 15.6785 110.935 15.3383 110.749 15.035C110.567 14.7273 110.322 14.4847 110.014 14.307C109.707 14.1293 109.371 14.0405 109.007 14.0405C108.595 14.0405 108.242 14.1272 107.947 14.3005C107.657 14.4695 107.427 14.6775 107.258 14.9245L106.231 14.5345L106.517 9.64H111.542V10.7385H107.076L107.59 10.2575L107.349 14.177L107.096 13.8455C107.356 13.5682 107.666 13.3537 108.025 13.202C108.389 13.0503 108.76 12.9745 109.137 12.9745C109.718 12.9745 110.238 13.111 110.697 13.384C111.156 13.6527 111.52 14.021 111.789 14.489C112.058 14.9527 112.192 15.4748 112.192 16.0555C112.192 16.6318 112.045 17.1583 111.75 17.635C111.455 18.1073 111.063 18.4865 110.573 18.7725C110.088 19.0542 109.555 19.195 108.974 19.195Z" fill="#5C5E60"/>
</svg>
