<svg width="64" height="64" viewBox="0 0 64 64" fill="none" xmlns="http://www.w3.org/2000/svg">
<path fill-rule="evenodd" clip-rule="evenodd" d="M40.3164 30.172L40.3201 34.5188C40.2212 34.8488 39.7754 34.4619 38.8857 35.1604C38.5416 35.4318 38.2245 35.836 38.1256 36.4108C37.7787 38.4302 40.1886 39.6172 39.4005 44.8981C39.3091 45.5077 39.0928 46.0531 39.0032 46.538C40.8116 46.6993 42.6666 46.1062 42.5826 47.3602C42.5323 48.1155 41.7824 48.0495 41.0951 48.0486C40.3331 48.0468 39.5712 48.0468 38.8092 48.0486L38.8111 49.5318C39.5488 49.5345 40.2856 49.5345 41.0214 49.5336C41.7395 49.5318 42.5108 49.4447 42.5808 50.1789C42.66 51.0058 41.9484 51.0213 41.2434 51.0195C40.4702 51.0168 39.6896 51.0314 38.9184 51.0131C39.2532 53.0637 41.7395 54.7466 44.1923 53.6586C47.0331 52.3982 46.6684 48.5647 45.9438 45.6177C44.7071 40.5852 47.0844 38.0965 47.0126 36.6913C46.9837 36.1293 46.647 35.6059 46.3709 35.2494C45.8561 34.582 45.5838 34.8176 44.8871 34.5188L44.8713 30.0968C45.8888 30.095 48.3052 30.2123 49.1446 30.0116C50.1285 29.7778 51.0956 28.8355 50.9398 27.5247C50.8643 26.8894 48.8452 22.2997 48.4395 21.384L44.5924 12.3247C44.1783 11.3384 43.8706 10.0395 42.5612 10.001C41.2089 9.96064 40.931 11.1853 40.5085 12.2321C39.8127 13.9545 34.3905 26.7171 34.273 27.5256C34.0883 28.8034 35.0209 29.8337 35.9871 30.0776C36.8144 30.2857 39.3054 30.1729 40.3164 30.172Z" fill="#4F738E"/>
<path fill-rule="evenodd" clip-rule="evenodd" d="M42.5631 11.4915C42.2935 11.6794 40.4348 16.4194 40.2697 16.8209C39.781 18.0107 35.8127 27.4468 35.795 27.7401C35.7577 28.3524 36.2371 28.5999 36.834 28.6091C38.8065 28.6412 40.75 28.5339 42.6367 28.5339C43.9088 28.5339 45.1819 28.5339 46.454 28.5339C47.4136 28.5339 49.5372 28.9024 49.4551 27.6869C49.4197 27.1553 44.5635 16.0372 43.7727 14.1323L42.7813 11.7866C42.7384 11.6959 42.758 11.7188 42.7076 11.6445C42.5752 11.4493 42.6852 11.5804 42.5631 11.4915Z" fill="#B3BDC7"/>
<path fill-rule="evenodd" clip-rule="evenodd" d="M16.8423 22.6444L27.449 22.6435C27.4313 15.9436 27.9442 16.6889 25.165 16.6889C22.3914 16.6889 19.6178 16.6916 16.8442 16.6889L16.8423 22.6444Z" fill="#EC691F"/>
<path fill-rule="evenodd" clip-rule="evenodd" d="M20.6091 53.9188L20.6287 47.9734H10.0173C10.119 54.6127 9.38871 53.9188 12.3181 53.9188C15.0824 53.9188 17.8457 53.9197 20.6091 53.9188Z" fill="#EC691F"/>
<path fill-rule="evenodd" clip-rule="evenodd" d="M22.2224 53.9069L31.1541 53.9261C31.2819 53.3605 31.1989 51.6565 31.1989 50.9699C31.1989 49.9891 31.1747 48.978 31.2045 48.0009L22.186 48.0201L22.2224 53.9069Z" fill="#EC691F"/>
<path fill-rule="evenodd" clip-rule="evenodd" d="M10.0201 40.5164L20.6231 40.5183L20.6269 36.0496L10.0463 36.0505L10.0201 40.5164Z" fill="#EC691F"/>
<path fill-rule="evenodd" clip-rule="evenodd" d="M10.021 28.6063L20.6119 28.6082L20.6268 24.1367L10.049 24.1376L10.021 28.6063Z" fill="#EC691F"/>
<path fill-rule="evenodd" clip-rule="evenodd" d="M16.8787 30.1244C16.7807 30.1959 16.8041 30.2519 16.805 30.5479C16.8059 30.7413 16.8078 30.9348 16.8078 31.1282C16.8078 31.9092 16.7602 34.0551 16.8302 34.5574C17.192 34.6912 25.4308 34.7059 25.9522 34.5711C26.0342 34.0761 26.0538 30.4288 25.9242 30.0942C24.8806 29.942 22.5966 30.0704 21.4215 30.0704C20.6866 30.0704 17.2461 29.9393 16.8787 30.1244Z" fill="#EC691F"/>
<path fill-rule="evenodd" clip-rule="evenodd" d="M22.1123 28.6182C23.5681 28.7071 25.2469 28.6319 26.7064 28.6319C27.57 28.6319 30.6234 28.7401 31.2352 28.5879L31.2464 24.155L22.1468 24.1183L22.1123 28.6182Z" fill="#EC691F"/>
<path fill-rule="evenodd" clip-rule="evenodd" d="M16.8423 46.4443L25.9232 46.4791L25.9372 42.0526C25.484 41.9417 17.1482 41.96 16.846 42.0636L16.8423 46.4443Z" fill="#EC691F"/>
<path fill-rule="evenodd" clip-rule="evenodd" d="M27.449 46.4728L36.5075 46.4793L36.5374 42.0216L27.4592 42.0115L27.449 46.4728Z" fill="#EC691F"/>
<path fill-rule="evenodd" clip-rule="evenodd" d="M22.1394 40.5064L31.2297 40.5165L31.2315 36.0753L22.1637 36.0505L22.1394 40.5064Z" fill="#EC691F"/>
<path fill-rule="evenodd" clip-rule="evenodd" d="M16.8787 30.1244L16.8815 34.5427L25.9065 34.5418L25.899 30.1427L16.8787 30.1244Z" fill="#EC691F"/>
<path fill-rule="evenodd" clip-rule="evenodd" d="M22.1984 28.5451L31.1264 28.5432L31.1226 24.2175L22.1853 24.2212L22.1984 28.5451Z" fill="#EC691F"/>
<path fill-rule="evenodd" clip-rule="evenodd" d="M47.9061 53.9188C48.9264 53.9161 49.929 53.9188 50.9316 53.9188C54.8187 53.9188 53.8628 54.7521 53.9672 47.9743L47.9033 47.9734L47.9061 53.9188Z" fill="#EC691F"/>
<path fill-rule="evenodd" clip-rule="evenodd" d="M10.0191 22.6425L15.322 22.6416L15.3211 16.7118C14.5377 16.6219 13.3635 16.6889 12.5391 16.6889C11.7734 16.6889 10.3651 16.4652 10.0956 17.1069C9.93987 17.4772 10.0219 21.8625 10.0191 22.6425Z" fill="#EC691F"/>
<path fill-rule="evenodd" clip-rule="evenodd" d="M27.4499 34.5599L34.2404 34.5654L34.2674 30.0994L27.4443 30.0967L27.4499 34.5599Z" fill="#EC691F"/>
<path fill-rule="evenodd" clip-rule="evenodd" d="M32.8311 53.9261L37.22 53.9124L37.2713 48.0027L32.7798 48.0009C32.8096 48.978 32.7854 49.9891 32.7854 50.9699C32.7854 51.6565 32.7024 53.3605 32.8311 53.9261Z" fill="#EC691F"/>
<path fill-rule="evenodd" clip-rule="evenodd" d="M10.0239 34.5637L10.41 34.5655H14.9621L15.2979 34.5573L15.3231 30.1206L10.0183 30.095L10.0239 34.5637Z" fill="#EC691F"/>
<path fill-rule="evenodd" clip-rule="evenodd" d="M48.6622 40.4953L53.9577 40.5192L53.9614 36.0514H48.6809L48.6622 40.4953Z" fill="#EC691F"/>
<path fill-rule="evenodd" clip-rule="evenodd" d="M48.6642 46.4629L53.9288 46.4803L53.9643 42.0134H48.6735L48.6642 46.4629Z" fill="#EC691F"/>
<path fill-rule="evenodd" clip-rule="evenodd" d="M10.0228 46.4775L15.2968 46.4784L15.322 42.0354L10.0359 42.0106L10.0228 46.4775Z" fill="#EC691F"/>
<path fill-rule="evenodd" clip-rule="evenodd" d="M32.7369 40.4963C33.1939 40.6091 35.9405 40.5651 36.5514 40.5312L36.556 36.0423L32.7537 36.0359L32.7369 40.4963Z" fill="#EC691F"/>
<path fill-rule="evenodd" clip-rule="evenodd" d="M32.8618 40.4872H36.5224L36.5046 40.0747L36.5084 36.5391V36.1028L32.8618 36.1156V40.4872Z" fill="#EC691F"/>
<path fill-rule="evenodd" clip-rule="evenodd" d="M50.9389 34.5525L53.9298 34.5654L53.9662 30.0967L50.9342 30.0994L50.9389 34.5525Z" fill="#EC691F"/>
<path fill-rule="evenodd" clip-rule="evenodd" d="M41.8467 34.549L43.3352 34.5646L43.3576 30.1124L41.842 30.1023L41.8467 34.549Z" fill="#EC691F"/>
<path fill-rule="evenodd" clip-rule="evenodd" d="M22.2226 53.907L22.1863 48.0203L31.2047 48.001C31.1749 48.9782 31.1991 49.9892 31.1991 50.9701C31.1991 51.6566 31.2821 53.3607 31.1544 53.9263C31.3316 53.8456 31.297 53.9886 31.2896 53.2791C31.2784 52.2387 31.3614 48.3842 31.2411 47.9625C30.716 47.8571 22.4418 47.8763 22.1247 47.9808L22.0977 53.7118C22.1126 54.0656 22.0827 53.7998 22.2226 53.907Z" fill="#EC691F"/>
<path fill-rule="evenodd" clip-rule="evenodd" d="M32.8311 53.9263C32.7024 53.3607 32.7854 51.6566 32.7854 50.9701C32.7854 49.9892 32.8096 48.9782 32.7798 48.001L37.2713 48.0028L37.22 53.9125C37.3972 53.8419 37.3506 53.9538 37.3431 53.2791C37.3319 52.1764 37.4131 48.4887 37.3123 47.9772C36.9896 47.88 33.1444 47.8819 32.7434 47.9625L32.6865 53.5725C32.7005 53.9501 32.7462 53.8676 32.8311 53.9263Z" fill="#EC691F"/>
</svg>
