<svg width="34" height="64" viewBox="0 0 34 64" fill="none" xmlns="http://www.w3.org/2000/svg">
<path d="M61 20H53.8898C53.6576 18.7705 53.0586 17.6401 52.1716 16.7575C51.6158 16.1986 50.9546 15.7554 50.2264 15.4538C49.4981 15.1521 48.7173 14.9979 47.929 15H46C44.5827 15.002 43.2117 15.5048 42.1293 16.4198C41.0469 17.3347 40.3228 18.6028 40.0849 20H38C38 19.2044 37.6839 18.4413 37.1213 17.8787C36.5587 17.3161 35.7957 17 35 17C34.2043 17 33.4413 17.3161 32.8787 17.8787C32.3161 18.4413 32 19.2044 32 20H29.1742C28.5534 18.4205 27.4404 17.0828 26 16.1851V13C26 12.7348 25.8946 12.4804 25.7071 12.2929C25.5196 12.1054 25.2652 12 25 12V10H28.5009C29.0599 10.2333 29.6731 10.3057 30.2711 10.209C30.8691 10.1123 31.4281 9.85042 31.8852 9.45288C32.3423 9.05534 32.6792 8.53797 32.8578 7.95915C33.0365 7.38032 33.0498 6.76309 32.8963 6.17709C32.7428 5.59109 32.4286 5.05966 31.9891 4.64276C31.5496 4.22586 31.0023 3.94008 30.4091 3.81768C29.8158 3.69528 29.2001 3.74112 28.6315 3.95004C28.0629 4.15895 27.564 4.52262 27.1911 5.00002H24.9865C24.6931 4.54022 24.2886 4.16177 23.8103 3.8996C23.332 3.63743 22.7954 3.5 22.25 3.5C21.7046 3.5 21.168 3.63743 20.6897 3.8996C20.2114 4.16177 19.8069 4.54022 19.5135 5.00002H17.3089C16.936 4.52306 16.4372 4.1598 15.8688 3.9512C15.3005 3.7426 14.6851 3.69697 14.0922 3.81945C13.4993 3.94193 12.9524 4.22765 12.5132 4.64439C12.074 5.06112 11.76 5.59228 11.6066 6.17796C11.4532 6.76364 11.4665 7.38053 11.645 7.95905C11.8235 8.53757 12.1601 9.0547 12.6169 9.45212C13.0736 9.84953 13.6323 10.1114 14.23 10.2082C14.8276 10.305 15.4404 10.2329 15.9993 10H19V12C18.7348 12 18.4804 12.1054 18.2929 12.2929C18.1054 12.4804 18 12.7348 18 13V16.0159C16.4242 16.9082 15.2028 18.3147 14.5401 20H12C12 19.2044 11.6839 18.4413 11.1213 17.8787C10.5587 17.3161 9.79565 17 9 17C8.20435 17 7.44129 17.3161 6.87868 17.8787C6.31607 18.4413 6 19.2044 6 20H3C2.73478 20 2.48043 20.1054 2.29289 20.2929C2.10536 20.4804 2 20.7348 2 21V27C2 27.2652 2.10536 27.5196 2.29289 27.7071C2.48043 27.8947 2.73478 28 3 28H6C6 28.7957 6.31607 29.5587 6.87868 30.1213C7.44129 30.6839 8.20435 31 9 31C9.79565 31 10.5587 30.6839 11.1213 30.1213C11.6839 29.5587 12 28.7957 12 28H14.5401C15.1147 29.4731 16.1206 30.7385 17.4261 31.6306C18.7316 32.5226 20.276 32.9999 21.8572 32.9999C23.4384 32.9999 24.9828 32.5226 26.2883 31.6306C27.5938 30.7385 28.5996 29.4731 29.1742 28H32C32 28.7957 32.3161 29.5587 32.8787 30.1213C33.4413 30.6839 34.2043 31 35 31C35.7957 31 36.5587 30.6839 37.1213 30.1213C37.6839 29.5587 38 28.7957 38 28H39V31C39 31.2652 39.1054 31.5196 39.2929 31.7071C39.4804 31.8947 39.7348 32 40 32V57.9424C39.9972 59.0065 40.4126 60.0292 41.1567 60.79C41.9008 61.5508 42.9139 61.9888 43.9778 62.0097C45.0418 62.0307 46.0714 61.6328 46.8448 60.9018C47.6181 60.1708 48.0734 59.1653 48.1125 58.1019L48.9705 37.7308L54.3162 35.9488C54.5154 35.8824 54.6886 35.755 54.8113 35.5848C54.934 35.4145 55 35.2099 55 35V29C55 28.7827 54.9293 28.5714 54.7985 28.3979C54.6676 28.2244 54.4839 28.0983 54.275 28.0385L54.1401 28H61C61.2652 28 61.5196 27.8947 61.7071 27.7071C61.8946 27.5196 62 27.2652 62 27V21C62 20.7348 61.8946 20.4804 61.7071 20.2929C61.5196 20.1054 61.2652 20 61 20ZM46 17H47.929C48.4545 16.9986 48.9751 17.1014 49.4606 17.3025C49.946 17.5036 50.3868 17.799 50.7574 18.1716C51.1526 18.5647 51.4659 19.0322 51.6792 19.5472C51.8925 20.0621 52.0015 20.6143 52 21.1716V27.3885L50 26.8171V21C50 20.7348 49.8946 20.4804 49.7071 20.2929C49.5196 20.1054 49.2652 20 49 20H42.1265C42.3493 19.1419 42.8505 18.382 43.5514 17.8391C44.2523 17.2962 45.1134 17.0011 46 17ZM41 30V28H46V30H41ZM29.75 5.75002C29.9972 5.75002 30.2389 5.82333 30.4445 5.96068C30.65 6.09803 30.8102 6.29325 30.9049 6.52166C30.9995 6.75007 31.0242 7.0014 30.976 7.24388C30.9277 7.48636 30.8087 7.70908 30.6339 7.8839C30.4591 8.05872 30.2363 8.17777 29.9939 8.226C29.7514 8.27423 29.5001 8.24948 29.2716 8.15487C29.0432 8.06026 28.848 7.90004 28.7107 7.69448C28.5733 7.48892 28.5 7.24724 28.5 7.00002C28.5004 6.66861 28.6322 6.35088 28.8665 6.11653C29.1009 5.88219 29.4186 5.75038 29.75 5.75002ZM26.6581 8.00002H25.25C25.3829 7.68166 25.4639 7.34403 25.4899 7.00002H26.5C26.4999 7.33958 26.5533 7.67705 26.6581 8.00002ZM22.25 5.50002C22.4972 5.50002 22.7389 5.57333 22.9445 5.71068C23.15 5.84803 23.3102 6.04325 23.4049 6.27166C23.4995 6.50007 23.5242 6.7514 23.476 6.99388C23.4277 7.23636 23.3087 7.45908 23.1339 7.6339C22.9591 7.80872 22.7363 7.92777 22.4939 7.976C22.2514 8.02423 22.0001 7.99948 21.7716 7.90487C21.5432 7.81026 21.348 7.65004 21.2107 7.44448C21.0733 7.23892 21 6.99724 21 6.75002C21.0004 6.41861 21.1322 6.10088 21.3665 5.86653C21.6009 5.63219 21.9186 5.50038 22.25 5.50002ZM19.0105 7.00002C19.0363 7.34401 19.1172 7.68163 19.25 8.00002H17.8419C17.9467 7.67705 18.0001 7.33958 18 7.00002H19.0105ZM13.5 7.00002C13.5 6.75279 13.5733 6.51112 13.7107 6.30555C13.848 6.09999 14.0432 5.93978 14.2716 5.84517C14.5001 5.75056 14.7514 5.7258 14.9939 5.77403C15.2363 5.82227 15.4591 5.94132 15.6339 6.11613C15.8087 6.29095 15.9278 6.51368 15.976 6.75615C16.0242 6.99863 15.9995 7.24996 15.9048 7.47837C15.8102 7.70678 15.65 7.902 15.4445 8.03935C15.2389 8.17671 14.9972 8.25002 14.75 8.25002C14.4186 8.24965 14.1009 8.11784 13.8665 7.8835C13.6322 7.64916 13.5004 7.33143 13.5 7.00002ZM21 10H23V12H21V10ZM20 14H24V15.3C22.6958 14.9282 21.3173 14.9021 20 15.2243V14ZM4 26V22H6V26H4ZM10 28C10 28.2652 9.89464 28.5196 9.70711 28.7071C9.51957 28.8947 9.26522 29 9 29C8.73478 29 8.48043 28.8947 8.29289 28.7071C8.10536 28.5196 8 28.2652 8 28V20C8 19.7348 8.10536 19.4804 8.29289 19.2929C8.48043 19.1054 8.73478 19 9 19C9.26522 19 9.51957 19.1054 9.70711 19.2929C9.89464 19.4804 10 19.7348 10 20V28ZM12 26V22H14.0476C14.0162 22.2847 14.0003 22.5708 14 22.8571V25.1429C14.0003 25.4293 14.0162 25.7154 14.0476 26H12ZM21.8571 31C20.3043 30.9982 18.8155 30.3806 17.7175 29.2825C16.6194 28.1845 16.0018 26.6958 16 25.1429V22.8571C16 21.3037 16.6171 19.814 17.7155 18.7155C18.8139 17.6171 20.3037 17 21.8571 17C23.4105 17 24.9003 17.6171 25.9987 18.7155C27.0972 19.814 27.7143 21.3037 27.7143 22.8571V25.1429C27.7125 26.6958 27.0948 28.1845 25.9968 29.2825C24.8987 30.3806 23.41 30.9982 21.8571 31ZM29.6666 26C29.698 25.7154 29.7139 25.4293 29.7143 25.1429V22.8571C29.7139 22.5708 29.698 22.2847 29.6666 22H32V26H29.6666ZM36 28C36 28.2652 35.8946 28.5196 35.7071 28.7071C35.5196 28.8947 35.2652 29 35 29C34.7348 29 34.4804 28.8947 34.2929 28.7071C34.1054 28.5196 34 28.2652 34 28V20C34 19.7348 34.1054 19.4804 34.2929 19.2929C34.4804 19.1054 34.7348 19 35 19C35.2652 19 35.5196 19.1054 35.7071 19.2929C35.8946 19.4804 36 19.7348 36 20V28ZM38 22H48V26.2456C48 26.2456 47.0404 26.0018 47.0262 26.0014C47.0174 26.0014 38 26 38 26V22ZM53 34.2793L47.6838 36.0513C47.4915 36.1154 47.3232 36.2364 47.2012 36.3983C47.0793 36.5602 47.0094 36.7554 47.0009 36.9579L46.1134 58.0214C46.0893 58.5574 45.8567 59.0628 45.4653 59.4299C45.0739 59.7969 44.5547 59.9966 44.0182 59.9862C43.4817 59.9759 42.9705 59.7565 42.5935 59.3747C42.2165 58.9929 42.0035 58.4789 42 57.9424V32H47C47.2652 32 47.5196 31.8947 47.7071 31.7071C47.8946 31.5196 48 31.2652 48 31V28.325L53 29.7536V34.2793ZM60 26H54V22H60V26Z" fill="#FA8A4B"/>
<path d="M25 24C24.7348 24 24.4804 24.1054 24.2929 24.2929C24.1054 24.4804 24 24.7348 24 25V25.25C23.9995 25.714 23.815 26.1588 23.4869 26.4869C23.1588 26.815 22.714 26.9995 22.25 27H22C21.7348 27 21.4804 27.1054 21.2929 27.2929C21.1054 27.4804 21 27.7348 21 28C21 28.2652 21.1054 28.5196 21.2929 28.7071C21.4804 28.8946 21.7348 29 22 29H22.25C23.2442 28.9989 24.1974 28.6034 24.9004 27.9004C25.6034 27.1974 25.9989 26.2442 26 25.25V25C26 24.7348 25.8946 24.4804 25.7071 24.2929C25.5196 24.1054 25.2652 24 25 24Z" fill="#FA8A4B"/>
</svg>
