<svg width="40" height="40" viewBox="0 0 40 40" fill="none" xmlns="http://www.w3.org/2000/svg">
<path d="M0 6.25C0 2.79822 2.79822 0 6.25 0H33.75C37.2018 0 40 2.79822 40 6.25V33.75C40 37.2018 37.2018 40 33.75 40H6.25C2.79822 40 0 37.2018 0 33.75V6.25Z" fill="#0077FF"/>
<path d="M21.0669 27C12.8671 27 8.19181 21.3795 8 12.012H12.1239C12.2557 18.8815 15.2767 21.7878 17.6743 22.3883V12.012H21.5465V17.9327C23.9081 17.6805 26.4016 14.9784 27.2408 12H31.1009C30.7862 13.5418 30.1574 15.0019 29.254 16.2893C28.3505 17.5766 27.1918 18.6635 25.8502 19.482C27.3474 20.2285 28.6696 21.2846 29.7297 22.5805C30.7897 23.8763 31.5635 25.3826 32 27H27.7443C26.8332 24.1537 24.5554 21.944 21.5465 21.6437V27H21.0789H21.0669Z" fill="white"/>
</svg>
