<svg width="40" height="40" viewBox="0 0 40 40" fill="none" xmlns="http://www.w3.org/2000/svg">
<path d="M33.75 0H6.25C2.79822 0 0 2.79822 0 6.25V33.75C0 37.2018 2.79822 40 6.25 40H33.75C37.2018 40 40 37.2018 40 33.75V6.25C40 2.79822 37.2018 0 33.75 0Z" fill="#25D366"/>
<path fill-rule="evenodd" clip-rule="evenodd" d="M28.4 11.45C26.15 9.2 23.15 8 20 8C13.4 8 8 13.4 8 20C8 22.1 8.60001 24.2 9.65001 26L8 32L14.3 30.35C16.1 31.25 18.05 31.85 20 31.85C26.6 31.85 32 26.45 32 19.85C32 16.7 30.65 13.7 28.4 11.45ZM20 29.9C18.2 29.9 16.4 29.45 14.9 28.55L14.6 28.4L10.85 29.45L11.9 25.85L11.6 25.4C10.55 23.75 10.1 21.95 10.1 20.15C10.1 14.75 14.6 10.25 20 10.25C22.7 10.25 25.1 11.3 27.05 13.1C29 15.05 29.9 17.45 29.9 20.15C29.9 25.4 25.55 29.9 20 29.9ZM25.4 22.4C25.1 22.25 23.6 21.5 23.3 21.5C23 21.35 22.85 21.35 22.7 21.65C22.55 21.95 21.95 22.55 21.8 22.85C21.65 23 21.5 23 21.2 23C20.9 22.85 20 22.55 18.8 21.5C17.9 20.75 17.3 19.7 17.15 19.4C17 19.1 17.15 18.95 17.3 18.8C17.45 18.65 17.6 18.5 17.75 18.35C17.9 18.2 17.9 18.05 18.05 17.9C18.2 17.75 18.05 17.6 18.05 17.45C18.05 17.3 17.45 15.8 17.15 15.2C17 14.75 16.7 14.75 16.55 14.75C16.4 14.75 16.25 14.75 15.95 14.75C15.8 14.75 15.5 14.75 15.2 15.05C14.9 15.35 14.15 16.1 14.15 17.6C14.15 19.1 15.2 20.45 15.35 20.75C15.5 20.9 17.45 24.05 20.45 25.25C23 26.3 23.45 26 24.05 26C24.65 26 25.85 25.25 26 24.65C26.3 23.9 26.3 23.3 26.15 23.3C26 22.55 25.7 22.55 25.4 22.4Z" fill="white"/>
</svg>
